# xmcd CD database file
# Copyright (C) 1997 Ti Kan
# 
# Track frame offsets:
#     182
#     19512
#     35577
#     54795
#     74780
#     89002
#     101210
#     119542
#     138167
#     151865
#     175007
#     201865
#     215810
# 
# Disc length: 3229 seconds
# 
# Revision: 1
# Processed by: cddbd v1.4b41PL1 Copyright (c) Steve Scherf et al.
# Submitted via: DiscPlay 4.0.3
# 
DISCID=bb0c9b0d
DTITLE=Blood Sweat and Tears - Highlights
DYEAR=1900
DGENRE=
TTITLE0=You've Made Me So Very Happy
TTITLE1=I Can't Quit Her
TTITLE2=Go Down Gamblin'
TTITLE3=Hi-de-ho
TTITLE4=Sometimes In Winter
TTITLE5=Without Her
TTITLE6=And When I Die
TTITLE7=Spinning Wheel
TTITLE8=Lisa Listen To Me
TTITLE9=Smiling Phases
TTITLE10=I Love You More Than You'll Ever Know
TTITLE11=Lucretia Macevil
TTITLE12=God Bless The Child
EXTD=
EXTT0=
EXTT1=
EXTT2=
EXTT3=
EXTT4=
EXTT5=
EXTT6=
EXTT7=
EXTT8=
EXTT9=
EXTT10=
EXTT11=
EXTT12=
PLAYORDER=
